<svg id="Capa_1" enable-background="new 0 0 512 512" height="512" viewBox="0 0 512 512" width="512" xmlns="http://www.w3.org/2000/svg"><g><g><path d="m416.298 413.013-82.793-29.221c-12.82-4.525-21.393-16.642-21.393-30.236v-57.475h-112.225v57.475c0 13.595-8.573 25.712-21.393 30.236l-82.793 29.221c-19.23 6.787-32.089 24.962-32.089 45.354v46.133h384.774v-46.132c.001-20.392-12.858-38.568-32.088-45.355z" fill="#ecbd83"/><path d="m416.298 413.013-81.773-28.861c-14.583 28.586-44.233 48.202-78.525 48.202s-63.942-19.617-78.525-48.202l-81.773 28.861c-19.23 6.787-32.089 24.962-32.089 45.354v46.133h40.081l21.806-15.5 26.29 15.5h208.42l21.79-15.5 26.307 15.5h40.081v-46.132c-.001-20.392-12.86-38.568-32.09-45.355z" fill="#b3e59f"/><path d="m256 464.419c48.267 0 89.776-28.506 108.915-69.541l-30.39-10.726c-14.583 28.586-44.233 48.202-78.525 48.202s-63.942-19.617-78.525-48.202l-30.39 10.726c19.139 41.036 60.648 69.541 108.915 69.541z" fill="#95d6a4"/><path d="m199.887 339.133c16.968 8.282 35.96 13.06 56.113 13.06s39.145-4.778 56.113-13.06v-43.052h-112.226z" fill="#e2a975"/><path d="m360.21 63.613h-208.42v160.323c0 57.553 46.656 104.21 104.21 104.21 57.527 0 104.164-46.615 104.206-104.132h-.331l.335-.077z" fill="#f6d190"/><path d="m360.21 167.823v-32.065h-208.42v88.177c0 57.553 46.656 104.21 104.21 104.21 5.467 0 10.793-.547 16.032-1.359-49.921-7.729-88.177-50.764-88.177-102.851v-40.081c0-8.854 7.178-16.032 16.032-16.032h160.323z" fill="#ecbd83"/><path d="m408.306 324.893v-11.603c0-16.376-1.792-32.702-5.345-48.687l-5.342-24.039c-3.553-15.987-5.345-32.316-5.345-48.693v-72.145c0-61.981-50.245-112.226-112.226-112.226h-48.097c-61.981 0-112.226 50.245-112.226 112.226v72.145c0 16.377-1.792 32.706-5.345 48.693l-5.342 24.039c-3.552 15.986-5.345 32.312-5.345 48.687v11.603c0 7.933 2.357 15.545 5.713 22.734 6.094 13.054 6.094 28.143 0 41.197-3.356 7.188-5.713 14.8-5.713 22.733v92.943h48.097v-368.742h32.955l71.255-64.129 71.255 64.129h32.955v368.742h48.097v-92.943c0-7.933-2.357-15.545-5.713-22.733-6.094-13.054-6.094-28.143 0-41.197 3.355-7.189 5.712-14.801 5.712-22.734z" fill="#c38c66"/><path d="m119.726 143.774v48.097c0 16.377-1.793 32.705-5.345 48.693l-5.342 24.039c-3.553 15.985-5.345 32.312-5.345 48.687v11.603c0 7.933 2.357 15.545 5.713 22.734 6.094 13.055 6.094 28.143 0 41.197-3.356 7.188-5.713 14.8-5.713 22.733v92.943h48.097v-360.726z" fill="#b57f5f"/><path d="m151.79 103.694c7.799-54.366 48.097-96.194 96.194-96.194h-16.032c-56.522 0-103.152 41.828-110.951 96.194z" fill="#b57f5f"/><path d="m392.274 143.774v-24.048c0-5.458-.522-10.782-1.275-16.032h-269.998c-.753 5.25-1.275 10.574-1.275 16.032v24.048z" fill="#b3e59f"/><path d="m151.79 107.201v-3.507h-30.789c-.753 5.25-1.275 10.574-1.275 16.032v24.048h272.548v-20.541h-224.451c-8.855 0-16.033-7.178-16.033-16.032z" fill="#95d6a4"/><path d="m291.346 267.997 12.873-4.8c-5.302-14.219-21.127-21.448-35.346-16.146l-12.873 4.8c5.302 14.219 21.127 21.448 35.346 16.146z" fill="#b57f5f"/><path d="m220.654 267.997-12.873-4.8c5.302-14.219 21.127-21.448 35.346-16.146l12.873 4.8c-5.302 14.219-21.127 21.448-35.346 16.146z" fill="#9f6e50"/></g><g><path d="m207.903 223.419c4.142 0 7.5-3.358 7.5-7.5v-8.016c0-4.142-3.358-7.5-7.5-7.5s-7.5 3.358-7.5 7.5v8.016c0 4.143 3.358 7.5 7.5 7.5z"/><path d="m296.597 207.903v8.016c0 4.142 3.358 7.5 7.5 7.5s7.5-3.358 7.5-7.5v-8.016c0-4.142-3.358-7.5-7.5-7.5s-7.5 3.358-7.5 7.5z"/><path d="m184.756 186.227c1.048 3.143 3.974 5.13 7.114 5.13.786 0 1.586-.125 2.373-.387l24.048-8.016c3.93-1.31 6.053-5.558 4.744-9.487-1.31-3.93-5.559-6.053-9.487-4.744l-24.048 8.017c-3.93 1.31-6.054 5.557-4.744 9.487z"/><path d="m293.709 182.954 24.048 8.016c.787.262 1.586.387 2.373.387 3.14 0 6.066-1.988 7.114-5.13 1.31-3.93-.814-8.177-4.744-9.487l-24.048-8.016c-3.929-1.311-8.177.814-9.487 4.744-1.309 3.928.814 8.176 4.744 9.486z"/><path d="m204.135 253.832-.169-.063c-3.88-1.448-8.2.525-9.648 4.407-1.447 3.881.525 8.201 4.407 9.648l19.31 7.2c4.015 1.497 8.131 2.207 12.184 2.206 9.779-.001 19.171-4.136 25.782-11.306 6.611 7.171 16.003 11.306 25.783 11.306 4.052 0 8.17-.709 12.184-2.206l19.31-7.2c3.881-1.447 5.854-5.767 4.407-9.648-1.448-3.881-5.766-5.851-9.648-4.407l-.169.063c-3.584-5.579-8.684-10.03-14.86-12.851-8.498-3.882-18-4.222-26.753-.958l-10.255 3.824-10.253-3.823c-8.754-3.264-18.255-2.924-26.753.958-6.175 2.82-11.276 7.272-14.859 12.85zm67.358.246c5-1.864 10.426-1.671 15.28.547 2.478 1.131 4.654 2.721 6.439 4.67l-4.487 1.673c-7.837 2.923-16.37.589-21.709-5.222zm-30.987 0 4.477 1.669c-5.338 5.811-13.87 8.146-21.709 5.222l-4.487-1.673c1.786-1.95 3.962-3.539 6.439-4.67 4.854-2.218 10.282-2.413 15.28-.548z"/><path d="m264.016 282.902h-16.032c-4.142 0-7.5 3.358-7.5 7.5s3.358 7.5 7.5 7.5h16.032c4.142 0 7.5-3.358 7.5-7.5s-3.358-7.5-7.5-7.5z"/><path d="m418.794 405.941-3.452-1.219c-.801-6.272-2.643-12.418-5.469-18.069-5.769-11.539-5.769-25.315 0-36.854 3.882-7.764 5.934-16.456 5.934-25.135v-11.371c0-16.895-1.858-33.824-5.524-50.317l-5.342-24.042c-3.428-15.426-5.166-31.26-5.166-47.063v-72.146c-.001-66.017-53.71-119.725-119.727-119.725h-48.097c-66.017 0-119.726 53.708-119.726 119.726v72.146c0 15.804-1.738 31.638-5.166 47.063l-5.342 24.042c-3.666 16.493-5.524 33.422-5.524 50.317v11.371c0 8.679 2.052 17.371 5.934 25.135 5.769 11.539 5.769 25.315 0 36.854-2.826 5.652-4.669 11.797-5.469 18.069l-3.452 1.219c-22.187 7.83-37.093 28.899-37.093 52.427v46.131c0 4.142 3.358 7.5 7.5 7.5s7.5-3.358 7.5-7.5v-46.132c0-16.46 9.995-31.265 25.081-37.507v83.639c0 4.142 3.358 7.5 7.5 7.5s7.5-3.358 7.5-7.5v-92.712c0-6.363 1.504-12.735 4.35-18.427 7.869-15.739 7.869-34.531 0-50.27-2.846-5.692-4.35-12.064-4.35-18.427v-11.371c0-15.803 1.738-31.637 5.167-47.063l5.342-24.042c3.665-16.492 5.523-33.421 5.523-50.317v-40.597h17.065v353.226c0 4.142 3.358 7.5 7.5 7.5s7.5-3.358 7.5-7.5v-76.903c24.038 27.775 59.325 44.323 96.709 44.323 37.383 0 72.671-16.548 96.709-44.323v76.903c0 4.142 3.358 7.5 7.5 7.5s7.5-3.358 7.5-7.5v-353.226h17.065v40.597c0 16.896 1.858 33.825 5.523 50.317l5.342 24.042c3.428 15.427 5.167 31.261 5.167 47.063v11.371c0 6.363-1.504 12.735-4.35 18.427-7.869 15.739-7.869 34.531 0 50.27 2.846 5.692 4.35 12.064 4.35 18.427v92.712c0 4.142 3.358 7.5 7.5 7.5s7.5-3.358 7.5-7.5v-83.639c15.085 6.241 25.081 21.047 25.081 37.507v46.132c0 4.142 3.358 7.5 7.5 7.5s7.5-3.358 7.5-7.5v-46.132c0-23.528-14.907-44.597-37.093-52.427zm-162.672-324.61 18.578 14.862h-36.227zm-24.17-66.331h16.548v53.14l-33.314 28.054h-85.294c10.707-46.453 52.402-81.194 102.06-81.194zm-55.954 361.72-16.708 5.897v-102.819c8.27 14.262 19.606 26.532 33.097 35.912v37.846c0 10.395-6.586 19.704-16.389 23.164zm80.002 80.199c-39.517 0-76.381-20.948-96.709-54.789v-3.607l14.63-5.163c4.653 7.755 10.368 14.801 17.034 20.983 1.444 1.339 3.273 2.001 5.098 2.001 2.015 0 4.023-.807 5.501-2.4 2.817-3.037 2.638-7.783-.399-10.599-5.061-4.693-9.463-9.982-13.156-15.758 11.84-7.029 19.389-19.908 19.389-34.032v-29.055c14.705 7.137 31.199 11.144 48.613 11.144 17.412 0 33.906-4.01 48.613-11.151v29.061c0 14.126 7.551 27.006 19.394 34.035-14.77 23.136-40.262 37.265-68.006 37.265-10.36 0-20.442-1.934-29.967-5.747-3.846-1.54-8.211.33-9.75 4.175-1.54 3.845.33 8.211 4.175 9.75 11.306 4.526 23.264 6.821 35.542 6.821 33.815 0 64.807-17.697 82.072-46.498l14.638 5.166v3.607c-20.331 33.842-57.196 54.791-96.712 54.791zm96.709-74.302-16.708-5.897c-9.803-3.46-16.389-12.769-16.389-23.165v-37.855c13.49-9.382 24.826-21.654 33.097-35.918zm0-158.686c0 .026-.004.051-.004.076-.039 53.286-43.421 96.638-96.706 96.638-53.313 0-96.688-43.363-96.709-96.671v-72.7h193.419zm-225.483-87.657v-16.549c0-2.873.121-5.717.349-8.532h184.538c4.142 0 7.5-3.358 7.5-7.5s-3.358-7.5-7.5-7.5h-13.402l-35.211-28.169v-53.024h16.548c49.657 0 91.353 34.741 102.059 81.193h-37.93c-4.142 0-7.5 3.358-7.5 7.5s3.358 7.5 7.5 7.5h40.248c.228 2.815.349 5.66.349 8.532v16.549z"/></g></g></svg>